<mxfile host="app.diagrams.net" modified="2025-01-28T05:07:29.605Z" agent="Mozilla/5.0 (Windows NT 10.0; Win64; x64) AppleWebKit/537.36 (KHTML, like Gecko) Chrome/132.0.0.0 Safari/537.36 Edg/132.0.0.0" version="23.1.1" etag="lQiEG5r-rWi3SI_pk-tE" type="github">
  <diagram name="Page-1" id="D-mK_oUn_zlg2db3jpQk">
    <mxGraphModel>
      <root>
        <mxCell id="0" />
        <mxCell id="1" parent="0" />
      </root>
    </mxGraphModel>
  </diagram>
</mxfile>
